{
  "accessors": [
    {
      "bufferView": 2,
      "componentType": 5126,
      "count": 387,
      "max": [
        18.944602966308594,
        35.459331512451172,
        16.75535774230957
      ],
      "min": [
        -18.944602966308594,
        -40.26910400390625,
        0
      ],
      "type": "VEC3"
    },
    {
      "bufferView": 2,
      "byteOffset": 4644,
      "componentType": 5126,
      "count": 387,
      "max": [
        1,
        0.99068069458007812,
        0.99854648113250732
      ],
      "min": [
        -1,
        -0.71089088916778564,
        -1
      ],
      "type": "VEC3"
    },
    {
      "bufferView": 1,
      "componentType": 5126,
      "count": 387,
      "max": [
        1,
        1
      ],
      "min": [
        0,
        0
      ],
      "type": "VEC2"
    },
    {
      "bufferView": 0,
      "componentType": 5125,
      "count": 696,
      "max": [
        386
      ],
      "min": [
        0
      ],
      "type": "SCALAR"
    },
    {
      "bufferView": 2,
      "byteOffset": 9288,
      "componentType": 5126,
      "count": 24,
      "max": [
        25.322521209716797,
        123.27859497070312,
        11.997997283935547
      ],
      "min": [
        -52.160945892333984,
        -182.52804565429688,
        0
      ],
      "type": "VEC3"
    },
    {
      "bufferView": 2,
      "byteOffset": 9576,
      "componentType": 5126,
      "count": 24,
      "max": [
        1,
        1,
        1
      ],
      "min": [
        -1,
        -1,
        -1
      ],
      "type": "VEC3"
    },
    {
      "bufferView": 1,
      "byteOffset": 3096,
      "componentType": 5126,
      "count": 24,
      "max": [
        1,
        1
      ],
      "min": [
        0,
        0
      ],
      "type": "VEC2"
    },
    {
      "bufferView": 0,
      "byteOffset": 2784,
      "componentType": 5125,
      "count": 36,
      "max": [
        23
      ],
      "min": [
        0
      ],
      "type": "SCALAR"
    },
    {
      "bufferView": 2,
      "byteOffset": 9864,
      "componentType": 5126,
      "count": 2024,
      "max": [
        59.033107757568359,
        284.19482421875,
        4.4348917007446289
      ],
      "min": [
        -5.7713041305541992,
        -6.2050571441650391,
        -1.9914084672927856
      ],
      "type": "VEC3"
    },
    {
      "bufferView": 2,
      "byteOffset": 34152,
      "componentType": 5126,
      "count": 2024,
      "max": [
        0.9854283332824707,
        0.98722690343856812,
        1
      ],
      "min": [
        -0.9854285717010498,
        -0.98379677534103394,
        -1
      ],
      "type": "VEC3"
    },
    {
      "bufferView": 1,
      "byteOffset": 3288,
      "componentType": 5126,
      "count": 2024,
      "max": [
        1,
        1
      ],
      "min": [
        0,
        0
      ],
      "type": "VEC2"
    },
    {
      "bufferView": 0,
      "byteOffset": 2928,
      "componentType": 5125,
      "count": 3036,
      "max": [
        2023
      ],
      "min": [
        0
      ],
      "type": "SCALAR"
    },
    {
      "bufferView": 2,
      "byteOffset": 58440,
      "componentType": 5126,
      "count": 138,
      "max": [
        6.7454648017883301,
        6.7224254608154297,
        4.8034801483154297
      ],
      "min": [
        -6.653465747833252,
        -6.7224259376525879,
        -1.2570489538177299e-08
      ],
      "type": "VEC3"
    },
    {
      "bufferView": 2,
      "byteOffset": 60096,
      "componentType": 5126,
      "count": 138,
      "max": [
        1,
        0.99658447504043579,
        1
      ],
      "min": [
        -0.98636132478713989,
        -0.99658459424972534,
        -1
      ],
      "type": "VEC3"
    },
    {
      "bufferView": 1,
      "byteOffset": 19480,
      "componentType": 5126,
      "count": 138,
      "max": [
        0.96325278282165527,
        1
      ],
      "min": [
        -0.03947371244430542,
        0
      ],
      "type": "VEC2"
    },
    {
      "bufferView": 0,
      "byteOffset": 15072,
      "componentType": 5125,
      "count": 558,
      "max": [
        137
      ],
      "min": [
        0
      ],
      "type": "SCALAR"
    }
  ],
  "asset": {
    "extras": {
      "author": "karan.sida (https://sketchfab.com/karan.sida)",
      "license": "CC-BY-4.0 (http://creativecommons.org/licenses/by/4.0/)",
      "source": "https://sketchfab.com/3d-models/keyboard-mouse-c55c2c27c33a4914a36e5bd165cf286d",
      "title": "Keyboard & Mouse"
    },
    "generator": "Sketchfab-9.69.0",
    "version": "2.0"
  },
  "bufferViews": [
    {
      "buffer": 0,
      "byteLength": 17304,
      "byteOffset": 0,
      "name": "floatBufferViews",
      "target": 34963
    },
    {
      "buffer": 0,
      "byteLength": 20584,
      "byteOffset": 17304,
      "byteStride": 8,
      "name": "floatBufferViews",
      "target": 34962
    },
    {
      "buffer": 0,
      "byteLength": 61752,
      "byteOffset": 37888,
      "byteStride": 12,
      "name": "floatBufferViews",
      "target": 34962
    }
  ],
  "buffers": [
    {
      "byteLength": 99640,
      "uri": "scene.bin"
    }
  ],
  "materials": [
    {
      "doubleSided": true,
      "emissiveFactor": [
        0,
        0,
        0
      ],
      "name": "07_-_Default",
      "pbrMetallicRoughness": {
        "baseColorFactor": [
          0.019607800000000002,
          0.019607800000000002,
          0.019607800000000002,
          1
        ],
        "metallicFactor": 0,
        "roughnessFactor": 0.89297135964975516
      }
    },
    {
      "doubleSided": true,
      "emissiveFactor": [
        0,
        0,
        0
      ],
      "name": "02_-_Default",
      "pbrMetallicRoughness": {
        "baseColorFactor": [
          1,
          0,
          0,
          1
        ],
        "metallicFactor": 0,
        "roughnessFactor": 0.89297135964975516
      }
    }
  ],
  "meshes": [
    {
      "name": "Box015_07 - Default_0",
      "primitives": [
        {
          "attributes": {
            "NORMAL": 1,
            "POSITION": 0,
            "TEXCOORD_0": 2
          },
          "indices": 3,
          "material": 0,
          "mode": 4
        }
      ]
    },
    {
      "name": "Box016_07 - Default_0",
      "primitives": [
        {
          "attributes": {
            "NORMAL": 5,
            "POSITION": 4,
            "TEXCOORD_0": 6
          },
          "indices": 7,
          "material": 0,
          "mode": 4
        }
      ]
    },
    {
      "name": "Box017_02 - Default_0",
      "primitives": [
        {
          "attributes": {
            "NORMAL": 9,
            "POSITION": 8,
            "TEXCOORD_0": 10
          },
          "indices": 11,
          "material": 1,
          "mode": 4
        }
      ]
    },
    {
      "name": "Cylinder048_02 - Default_0",
      "primitives": [
        {
          "attributes": {
            "NORMAL": 13,
            "POSITION": 12,
            "TEXCOORD_0": 14
          },
          "indices": 15,
          "material": 1,
          "mode": 4
        }
      ]
    }
  ],
  "nodes": [
    {
      "children": [
        1
      ],
      "name": "RootNode (gltf orientation matrix)",
      "rotation": [
        -0.70710678118654746,
        -0,
        -0,
        0.70710678118654757
      ]
    },
    {
      "children": [
        2
      ],
      "name": "RootNode (model correction matrix)"
    },
    {
      "children": [
        3
      ],
      "matrix": [
        1,
        0,
        0,
        0,
        0,
        0,
        1,
        0,
        0,
        -1,
        0,
        0,
        0,
        0,
        0,
        1
      ],
      "name": "e3f6d70335fc4a95a3e07ae70d2aae5c.fbx"
    },
    {
      "children": [
        4,
        6,
        8,
        10
      ],
      "name": "RootNode"
    },
    {
      "children": [
        5
      ],
      "matrix": [
        1,
        0,
        0,
        0,
        0,
        2.2204460492503131e-16,
        -1,
        0,
        0,
        1.2647680044174194,
        2.8083491186268615e-16,
        0,
        -257.10305786132812,
        33.389934539794922,
        -163.35881042480469,
        1
      ],
      "name": "Box015"
    },
    {
      "mesh": 0,
      "name": "Box015_07 - Default_0"
    },
    {
      "children": [
        7
      ],
      "matrix": [
        8.2595907164190654e-08,
        -6.0730085178761095e-17,
        -1.0940159559249847,
        0,
        -1.0940159559249847,
        0,
        -8.2595907164190654e-08,
        0,
        6.0730085178761095e-17,
        1.0940159559249878,
        0,
        0,
        -56.177261352539062,
        33.402942657470703,
        -175.22140502929688,
        1
      ],
      "name": "Box016"
    },
    {
      "mesh": 1,
      "name": "Box016_07 - Default_0"
    },
    {
      "children": [
        9
      ],
      "matrix": [
        8.2595907164190654e-08,
        -6.0730085178761095e-17,
        -1.0940159559249847,
        0,
        -1.0940159559249847,
        0,
        -8.2595907164190654e-08,
        0,
        6.0730085178761095e-17,
        1.0940159559249878,
        0,
        0,
        128.5911865234375,
        48.549724578857422,
        -135.33575439453125,
        1
      ],
      "name": "Box017"
    },
    {
      "mesh": 2,
      "name": "Box017_02 - Default_0"
    },
    {
      "children": [
        11
      ],
      "matrix": [
        2.2216706880453862e-08,
        0.50825899839401201,
        0,
        0,
        0,
        0,
        -0.50825899839401245,
        0,
        -0.50825899839401201,
        2.2216706880453862e-08,
        0,
        0,
        -255.85159301757812,
        46.061061859130859,
        -140.62612915039062,
        1
      ],
      "name": "Cylinder048"
    },
    {
      "mesh": 3,
      "name": "Cylinder048_02 - Default_0"
    }
  ],
  "scene": 0,
  "scenes": [
    {
      "name": "OSG_Scene",
      "nodes": [
        0
      ]
    }
  ]
}

