{
  "accessors": [
    {
      "bufferView": 2,
      "componentType": 5126,
      "count": 8076,
      "max": [
        3.5910356044769287,
        1.728337287902832,
        1.6152554750442505
      ],
      "min": [
        -3.5910356044769287,
        -7.0151344289115514e-08,
        -2.6100447177886963
      ],
      "type": "VEC3"
    },
    {
      "bufferView": 2,
      "byteOffset": 96912,
      "componentType": 5126,
      "count": 8076,
      "max": [
        1,
        1,
        0.99990391731262207
      ],
      "min": [
        -1,
        -0.99988824129104614,
        -0.99930369853973389
      ],
      "type": "VEC3"
    },
    {
      "bufferView": 1,
      "componentType": 5126,
      "count": 8076,
      "max": [
        2.3884963989257812,
        1.0000001192092896
      ],
      "min": [
        0,
        0
      ],
      "type": "VEC2"
    },
    {
      "bufferView": 0,
      "componentType": 5125,
      "count": 12765,
      "max": [
        8075
      ],
      "min": [
        0
      ],
      "type": "SCALAR"
    },
    {
      "bufferView": 2,
      "byteOffset": 193824,
      "componentType": 5126,
      "count": 26,
      "max": [
        3.4344754219055176,
        0.34602147340774536,
        1.4741519689559937
      ],
      "min": [
        -3.4344754219055176,
        0.081397250294685364,
        -1.4741519689559937
      ],
      "type": "VEC3"
    },
    {
      "bufferView": 2,
      "byteOffset": 194136,
      "componentType": 5126,
      "count": 26,
      "max": [
        0.14445863664150238,
        1,
        4.9411710278945975e-08
      ],
      "min": [
        -0.14445863664150238,
        0.98951083421707153,
        3.5111021645661822e-08
      ],
      "type": "VEC3"
    },
    {
      "bufferView": 1,
      "byteOffset": 64608,
      "componentType": 5126,
      "count": 26,
      "max": [
        0.98477894067764282,
        0.96559029817581177
      ],
      "min": [
        0.5,
        0.034409724175930023
      ],
      "type": "VEC2"
    },
    {
      "bufferView": 0,
      "byteOffset": 51060,
      "componentType": 5125,
      "count": 72,
      "max": [
        25
      ],
      "min": [
        0
      ],
      "type": "SCALAR"
    },
    {
      "bufferView": 2,
      "byteOffset": 194448,
      "componentType": 5126,
      "count": 214,
      "max": [
        1.7955178022384644,
        1.6390149593353271,
        0.639961838722229
      ],
      "min": [
        -1.7955178022384644,
        0.35401946306228638,
        -2.6100447177886963
      ],
      "type": "VEC3"
    },
    {
      "bufferView": 2,
      "byteOffset": 197016,
      "componentType": 5126,
      "count": 214,
      "max": [
        0.97194558382034302,
        0.90980309247970581,
        0.9573022723197937
      ],
      "min": [
        -0.97194522619247437,
        -1,
        -0.99782145023345947
      ],
      "type": "VEC3"
    },
    {
      "bufferView": 1,
      "byteOffset": 64816,
      "componentType": 5126,
      "count": 214,
      "max": [
        1.0000001192092896,
        1
      ],
      "min": [
        0,
        0
      ],
      "type": "VEC2"
    },
    {
      "bufferView": 0,
      "byteOffset": 51348,
      "componentType": 5125,
      "count": 324,
      "max": [
        213
      ],
      "min": [
        0
      ],
      "type": "SCALAR"
    }
  ],
  "asset": {
    "extras": {
      "author": "davimfs7 (https://sketchfab.com/davimfs7)",
      "license": "CC-BY-4.0 (http://creativecommons.org/licenses/by/4.0/)",
      "source": "https://sketchfab.com/3d-models/gaming-monitor-5fd519c6dfd04ed49bd7ac718a788b8d",
      "title": "Gaming Monitor"
    },
    "generator": "Sketchfab-9.55.0",
    "version": "2.0"
  },
  "bufferViews": [
    {
      "buffer": 0,
      "byteLength": 52644,
      "byteOffset": 0,
      "name": "floatBufferViews",
      "target": 34963
    },
    {
      "buffer": 0,
      "byteLength": 66528,
      "byteOffset": 52644,
      "byteStride": 8,
      "name": "floatBufferViews",
      "target": 34962
    },
    {
      "buffer": 0,
      "byteLength": 199584,
      "byteOffset": 119172,
      "byteStride": 12,
      "name": "floatBufferViews",
      "target": 34962
    }
  ],
  "buffers": [
    {
      "byteLength": 318756,
      "uri": "scene.bin"
    }
  ],
  "materials": [
    {
      "doubleSided": true,
      "emissiveFactor": [
        0,
        0,
        0
      ],
      "name": "Material.001",
      "pbrMetallicRoughness": {
        "baseColorFactor": [
          0.00073723599999999995,
          0.00051154800000000002,
          0.00071067799999999996,
          1
        ],
        "metallicFactor": 0,
        "roughnessFactor": 0.99993410862637178
      }
    },
    {
      "doubleSided": true,
      "emissiveFactor": [
        0.0042164200000000002,
        0.0042164200000000002,
        0.0042164200000000002
      ],
      "name": "Material.002",
      "pbrMetallicRoughness": {
        "baseColorFactor": [
          0.00073723599999999995,
          0.00051154800000000002,
          0.00071067799999999996,
          1
        ],
        "metallicFactor": 0,
        "roughnessFactor": 0.99983584052957974
      }
    },
    {
      "doubleSided": true,
      "emissiveFactor": [
        0,
        0,
        0
      ],
      "name": "Material.003",
      "pbrMetallicRoughness": {
        "baseColorFactor": [
          0.62810550948615251,
          0.009603880566607827,
          0.43008137560588994,
          1
        ],
        "metallicFactor": 0,
        "roughnessFactor": 0.80404082057734572
      }
    }
  ],
  "meshes": [
    {
      "name": "Plane_Material.001_0",
      "primitives": [
        {
          "attributes": {
            "NORMAL": 1,
            "POSITION": 0,
            "TEXCOORD_0": 2
          },
          "indices": 3,
          "material": 0,
          "mode": 4
        }
      ]
    },
    {
      "name": "Plane_Material.002_0",
      "primitives": [
        {
          "attributes": {
            "NORMAL": 5,
            "POSITION": 4,
            "TEXCOORD_0": 6
          },
          "indices": 7,
          "material": 1,
          "mode": 4
        }
      ]
    },
    {
      "name": "Plane_Material.003_0",
      "primitives": [
        {
          "attributes": {
            "NORMAL": 9,
            "POSITION": 8,
            "TEXCOORD_0": 10
          },
          "indices": 11,
          "material": 2,
          "mode": 4
        }
      ]
    }
  ],
  "nodes": [
    {
      "children": [
        1
      ],
      "name": "RootNode (gltf orientation matrix)",
      "rotation": [
        -0.70710678118654746,
        -0,
        -0,
        0.70710678118654757
      ]
    },
    {
      "children": [
        2
      ],
      "name": "RootNode (model correction matrix)"
    },
    {
      "children": [
        3
      ],
      "matrix": [
        1,
        0,
        0,
        0,
        0,
        0,
        1,
        0,
        0,
        -1,
        0,
        0,
        0,
        0,
        0,
        1
      ],
      "name": "gaming_monitor.fbx"
    },
    {
      "children": [
        4
      ],
      "name": "RootNode"
    },
    {
      "children": [
        5,
        6,
        7
      ],
      "matrix": [
        71.823731884826074,
        0,
        -69.579821343092135,
        0,
        -69.579821343092078,
        -4.3711390063094768e-06,
        -71.823731884826017,
        0,
        -3.0414307072845759e-06,
        99.999999999999929,
        -3.1395151589563852e-06,
        0,
        20.887477874755859,
        252.38812255859375,
        -7.3354215621948242,
        1
      ],
      "name": "Plane"
    },
    {
      "mesh": 0,
      "name": "Plane_Material.001_0"
    },
    {
      "mesh": 1,
      "name": "Plane_Material.002_0"
    },
    {
      "mesh": 2,
      "name": "Plane_Material.003_0"
    }
  ],
  "scene": 0,
  "scenes": [
    {
      "name": "OSG_Scene",
      "nodes": [
        0
      ]
    }
  ]
}

